# xmcd CD database file
#
# Track frame offsets:
#	150
#	14297
#	26838
#	39355
#	55571
#	66299
#	77147
#	88920
#	103986
#	122400
#	136282
#	154075
#	168061
#
# Disc length: 2393 seconds
#
# Revision: 0
# Processed by: cddbd v1.5.2PL0 Copyright (c) Steve Scherf et al.
# Submitted via: CDex 1.51
#
DISCID=a009570d
DTITLE=Dawn McCarthy and Bonnie 'Prince' Billy - What the Brothers Sang
DYEAR=2013
DGENRE=Country
TTITLE0=Breakdown (Kris Kristofferson)
TTITLE1=Empty Boxes (Ron Elliott)
TTITLE2=Milk Train (Toney Romeo)
TTITLE3=What am I Living For (Fred Jay/Art Harris)
TTITLE4=My Little Yellow Bird (Don Everly)
TTITLE5=Devoted to You (Felice and Boudleaux Bryant)
TTITLE6=Somebody Help Me (Jackie Edwards)
TTITLE7=So Sad (Don Everly)
TTITLE8=Omaha (Don Everly)
TTITLE9=It's All Over (Don Everly)
TTITLE10=Poems, Prayers, and Promises (John Denver)
TTITLE11=Just What I Was Looking For (Carole King/Gerry Goffin)
TTITLE12=Kentucky (Karl Davis)
EXTD=YEAR: 2013
EXTT0=
EXTT1=
EXTT2=
EXTT3=
EXTT4=
EXTT5=
EXTT6=
EXTT7=
EXTT8=
EXTT9=
EXTT10=
EXTT11=
EXTT12=
PLAYORDER=
